<svg width="25" height="25" viewBox="0 0 25 25" fill="none" xmlns="http://www.w3.org/2000/svg">
<circle cx="12.5" cy="12.5" r="12.5" fill="#2D2D2D"/>
<path d="M5.31473 12.4528C4.89621 12.8923 4.89621 13.606 5.31473 14.0454L10.6719 19.6704C11.0904 20.1099 11.7701 20.1099 12.1886 19.6704C12.6071 19.231 12.6071 18.5173 12.1886 18.0778L8.65625 14.3724L18.9286 14.3724C19.5212 14.3724 20 13.8696 20 13.2474C20 12.6251 19.5212 12.1224 18.9286 12.1224L8.6596 12.1224L12.1853 8.4169C12.6038 7.97744 12.6038 7.26377 12.1853 6.82432C11.7667 6.38486 11.0871 6.38486 10.6685 6.82432L5.31138 12.4493L5.31473 12.4528Z" fill="white"/>
</svg>
