<svg width="25" height="25" viewBox="0 0 25 25" fill="none" xmlns="http://www.w3.org/2000/svg">
<circle cx="12.5" cy="12.5" r="12.5" fill="#2D2D2D"/>
<path d="M19.686 12.4528C20.1045 12.8923 20.1045 13.606 19.686 14.0454L14.3289 19.6704C13.9103 20.1099 13.2306 20.1099 12.8121 19.6704C12.3936 19.231 12.3936 18.5173 12.8121 18.0778L16.3445 14.3724L6.07216 14.3724C5.47953 14.3724 5.00073 13.8696 5.00073 13.2474C5.00073 12.6251 5.47953 12.1224 6.07216 12.1224L16.3411 12.1224L12.8155 8.4169C12.3969 7.97744 12.3969 7.26377 12.8155 6.82432C13.234 6.38486 13.9137 6.38486 14.3322 6.82432L19.6893 12.4493L19.686 12.4528Z" fill="white"/>
</svg>
