<svg width="20" height="20" viewBox="0 0 20 20" fill="none" xmlns="http://www.w3.org/2000/svg">
<path d="M9.48799 19.8242C9.48799 19.8242 9.48834 19.8245 9.99996 19.1667L10.5116 19.8245C10.2107 20.0585 9.78891 20.0582 9.48799 19.8242Z" fill="#717171"/>
<path fill-rule="evenodd" clip-rule="evenodd" d="M9.99996 5C8.15901 5 6.66663 6.49238 6.66663 8.33333C6.66663 10.1743 8.15901 11.6667 9.99996 11.6667C11.8409 11.6667 13.3333 10.1743 13.3333 8.33333C13.3333 6.49238 11.8409 5 9.99996 5ZM8.33329 8.33333C8.33329 7.41286 9.07948 6.66667 9.99996 6.66667C10.9204 6.66667 11.6666 7.41286 11.6666 8.33333C11.6666 9.25381 10.9204 10 9.99996 10C9.07948 10 8.33329 9.25381 8.33329 8.33333Z" fill="#717171"/>
<path fill-rule="evenodd" clip-rule="evenodd" d="M9.48799 19.8242L9.99996 19.1667C10.5116 19.8245 10.5125 19.8238 10.5125 19.8238L10.514 19.8226L10.5192 19.8185L10.5375 19.8041C10.5531 19.7918 10.5757 19.7739 10.6048 19.7507C10.6628 19.7042 10.7467 19.6364 10.8527 19.5489C11.0646 19.374 11.3654 19.12 11.7255 18.7999C12.4444 18.1608 13.4056 17.2534 14.3694 16.1825C15.3308 15.1143 16.3109 13.8658 17.0544 12.544C17.7936 11.2298 18.3333 9.78278 18.3333 8.33333C18.3333 6.1232 17.4553 4.00358 15.8925 2.44078C14.3297 0.877974 12.2101 0 9.99996 0C7.78982 0 5.67021 0.877974 4.1074 2.44078C2.5446 4.00358 1.66663 6.1232 1.66663 8.33333C1.66663 9.78278 2.20631 11.2298 2.94552 12.544C3.68907 13.8658 4.66915 15.1143 5.63055 16.1825C6.59437 17.2534 7.55547 18.1608 8.27445 18.7999C8.63451 19.12 8.93529 19.374 9.14722 19.5489C9.25322 19.6364 9.33709 19.7042 9.39515 19.7507C9.42418 19.7739 9.44677 19.7918 9.46245 19.8041L9.48075 19.8185L9.4859 19.8226L9.48799 19.8242ZM5.28591 3.61929C6.53616 2.36905 8.23185 1.66667 9.99996 1.66667C11.7681 1.66667 13.4638 2.36905 14.714 3.61929C15.9642 4.86953 16.6666 6.56522 16.6666 8.33333C16.6666 9.38389 16.2688 10.541 15.6018 11.7269C14.9391 12.905 14.0441 14.0524 13.1305 15.0675C12.2194 16.08 11.3055 16.9433 10.6182 17.5542C10.3813 17.7648 10.1721 17.9447 9.99996 18.0898C9.82785 17.9447 9.61859 17.7648 9.38172 17.5542C8.69444 16.9433 7.78055 16.08 6.86937 15.0675C5.95577 14.0524 5.06085 12.905 4.39815 11.7269C3.73111 10.541 3.33329 9.38389 3.33329 8.33333C3.33329 6.56522 4.03567 4.86953 5.28591 3.61929Z" fill="#717171"/>
</svg>
