<svg width="17" height="21" viewBox="0 0 17 21" fill="none" xmlns="http://www.w3.org/2000/svg">
<path d="M16 5.6875V15.0625C16 18.8125 15.0625 19.75 11.3125 19.75H5.6875C1.9375 19.75 1 18.8125 1 15.0625V5.6875C1 1.9375 1.9375 1 5.6875 1H11.3125C15.0625 1 16 1.9375 16 5.6875Z" stroke="#717171" stroke-width="1.5" stroke-linecap="round" stroke-linejoin="round"/>
<path d="M10.375 4.28125H6.625" stroke="#717171" stroke-width="1.5" stroke-linecap="round" stroke-linejoin="round"/>
<path d="M8.5 17.0312C9.30254 17.0312 9.95312 16.3807 9.95312 15.5781C9.95312 14.7756 9.30254 14.125 8.5 14.125C7.69746 14.125 7.04688 14.7756 7.04688 15.5781C7.04688 16.3807 7.69746 17.0312 8.5 17.0312Z" stroke="#717171" stroke-width="1.5" stroke-linecap="round" stroke-linejoin="round"/>
</svg>
