<svg width="25" height="28" viewBox="0 0 25 28" fill="none" xmlns="http://www.w3.org/2000/svg">
<path d="M12.5 0C11.5122 0 10.7141 0.780466 10.7141 1.7465V2.7944C6.64004 3.60215 3.57054 7.12789 3.57054 11.3522V12.7385C3.57054 15.2164 2.7055 17.6233 1.1261 19.5553L0.29454 20.5759C-0.0291525 20.9689 -0.0905426 21.5092 0.132694 21.9622C0.355931 22.4152 0.824727 22.7045 1.33817 22.7045H23.6618C24.1753 22.7045 24.6441 22.4152 24.8673 21.9622C25.0905 21.5092 25.0292 20.9689 24.7055 20.5759L23.8739 19.5608C22.2945 17.6233 21.4295 15.2164 21.4295 12.7385V11.3522C21.4295 7.12789 18.36 3.60215 14.2859 2.7944V1.7465C14.2859 0.780466 13.4878 0 12.5 0ZM12.5 5.23949C15.9546 5.23949 18.7506 7.97385 18.7506 11.3522V12.7385C18.7506 15.3528 19.5264 17.9016 20.9662 20.0847H4.03375C5.47363 17.9016 6.24938 15.3528 6.24938 12.7385V11.3522C6.24938 7.97385 9.04541 5.23949 12.5 5.23949ZM16.0718 24.451H12.5H8.92822C8.92822 25.3788 9.30214 26.2684 9.97185 26.9234C10.6416 27.5783 11.5512 27.944 12.5 27.944C13.4488 27.944 14.3584 27.5783 15.0282 26.9234C15.6979 26.2684 16.0718 25.3788 16.0718 24.451Z" fill="#505050"/>
</svg>
